<svg width="24.000000" height="24.000000" viewBox="0 0 24 24" fill="none" xmlns="http://www.w3.org/2000/svg" xmlns:xlink="http://www.w3.org/1999/xlink">
	<desc>
			Created with Pixso.
	</desc>
	<defs>
		<clipPath id="clip272_1691">
			<rect id="Icon" width="24.000000" height="24.000000" transform="translate(-0.799805 0.000000)" fill="white" fill-opacity="0"/>
		</clipPath>
	</defs>
	<g clip-path="url(#clip272_1691)">
		<path id="Subtract" d="M11.2 2.25C5.81 2.25 1.45 6.61 1.45 12C1.45 17.38 5.81 21.75 11.2 21.75C16.58 21.75 20.95 17.38 20.95 12C20.95 6.61 16.58 2.25 11.2 2.25ZM11.95 6C11.95 5.58 11.61 5.25 11.2 5.25C10.78 5.25 10.45 5.58 10.45 6L10.45 12C10.45 12.41 10.78 12.75 11.2 12.75L15.7 12.75C16.11 12.75 16.45 12.41 16.45 12C16.45 11.58 16.11 11.25 15.7 11.25L11.95 11.25L11.95 6Z" fill="#999999" fill-opacity="1.000000" fill-rule="evenodd"/>
	</g>
</svg>
