<svg width="16.000000" height="16.000000" viewBox="0 0 16 16" fill="none" xmlns="http://www.w3.org/2000/svg" xmlns:xlink="http://www.w3.org/1999/xlink">
	<desc>
			Created with Pixso.
	</desc>
	<defs>
		<clipPath id="clip180_316">
			<rect id="Icon" width="5.427155" height="5.427155" transform="translate(5.550476 5.303711)" fill="white" fill-opacity="0"/>
		</clipPath>
	</defs>
	<rect id="Vector" width="16.000000" height="16.000000" fill="#FFFFFF" fill-opacity="0"/>
	<path id="Vector" d="M13.27 6.42C13.16 2.91 10.32 0.08 6.8 0C6.71 0 6.63 0.06 6.63 0.15L6.63 2.51C6.63 2.63 6.54 2.72 6.42 2.72C2.91 2.83 0.08 5.68 0 9.19C0 9.28 0.06 9.36 0.15 9.36L2.51 9.36C2.62 9.36 2.71 9.46 2.72 9.57C2.83 13.08 5.68 15.91 9.19 16C9.28 16 9.36 15.93 9.36 15.84L9.36 13.48C9.36 13.36 9.45 13.27 9.57 13.27C13.08 13.15 15.91 10.31 16 6.8C16 6.71 15.93 6.63 15.84 6.63L13.48 6.63C13.37 6.63 13.28 6.53 13.27 6.42ZM9.13 13.25C7.13 13.13 5.53 11.51 5.46 9.51C5.45 9.42 5.39 9.35 5.3 9.35L2.95 9.35C2.83 9.35 2.74 9.25 2.74 9.12C2.86 7.13 4.48 5.53 6.48 5.46C6.57 5.45 6.64 5.38 6.64 5.3L6.64 2.95C6.64 2.83 6.74 2.73 6.87 2.73C8.86 2.85 10.46 4.47 10.54 6.48C10.54 6.56 10.61 6.63 10.7 6.63L13.04 6.64C13.16 6.64 13.26 6.74 13.25 6.86C13.14 8.91 11.44 10.53 9.36 10.53L9.36 13.04C9.35 13.16 9.25 13.26 9.13 13.25Z" fill="#E60000" fill-opacity="1.000000" fill-rule="evenodd"/>
	<g clip-path="url(#clip180_316)">
		<path id="Rectangle 511 (Stroke)" d="M6.56 6.58C6.56 6.25 6.91 6.05 7.19 6.21L9.8 7.64C10.09 7.8 10.09 8.22 9.8 8.38L7.19 9.82C6.91 9.97 6.56 9.77 6.56 9.45L6.56 6.58Z" fill="#FFFFFF" fill-opacity="1.000000" fill-rule="evenodd"/>
	</g>
</svg>
