<svg width="40.000000" height="40.000000" viewBox="0 0 40 40" fill="none" xmlns="http://www.w3.org/2000/svg" xmlns:xlink="http://www.w3.org/1999/xlink">
	<desc>
			Created with Pixso.
	</desc>
	<defs>
		<filter id="filter_184_904_dd" x="1.527954" y="6.398926" width="36.000122" height="26.390320" filterUnits="userSpaceOnUse" color-interpolation-filters="sRGB">
			<feFlood flood-opacity="0" result="BackgroundImageFix"/>
			<feGaussianBlur in="BackgroundImage" stdDeviation="4"/>
			<feComposite in2="SourceAlpha" operator="in" result="effect_backgroundBlur_1"/>
			<feBlend mode="normal" in="SourceGraphic" in2="effect_backgroundBlur_1" result="shape"/>
		</filter>
		<clipPath id="clip184_903">
			<rect id="Frame" width="36.000000" height="26.400000" transform="translate(1.533447 6.399902)" fill="white" fill-opacity="0"/>
		</clipPath>
		<clipPath id="clip184_902">
			<rect id="Icon" width="40.000000" height="40.000000" transform="translate(-0.666626 0.000000)" fill="white" fill-opacity="0"/>
		</clipPath>
	</defs>
	<g clip-path="url(#clip184_902)">
		<rect id="Frame" width="36.000000" height="26.400000" transform="translate(1.533447 6.399902)" fill="#FFFFFF" fill-opacity="0"/>
		<g clip-path="url(#clip184_903)">
			<g filter="url(#filter_184_904_dd)">
				<mask id="mask_184_904" fill="white">
					<path id="Union" d="M18.3468 10.6881L20.7197 10.6881C20.7197 10.3158 20.7224 9.95163 20.7251 9.59244C20.7305 8.88861 20.7356 8.20386 20.7197 7.51389C20.6957 6.89102 20.1924 6.43585 19.5931 6.3999C18.994 6.37595 18.3948 6.7952 18.3589 7.3941C18.3253 8.15561 18.3328 8.91714 18.3403 9.68683C18.3436 10.0189 18.3468 10.3524 18.3468 10.6881ZM1.53333 26.1879C1.4845 24.8626 1.8562 23.6244 2.22876 22.3832C2.31421 22.0988 2.39954 21.8142 2.47998 21.5284C2.97131 19.7676 3.49866 18.0068 4.01392 16.246C5.38013 11.4907 11.3961 9.53821 15.0752 12.8681C15.231 13.0119 15.4946 13.0957 15.7103 13.0957Q17.661 13.105 19.6117 13.1047L19.6656 13.1047Q21.463 13.1043 23.2603 13.0957C23.452 13.0957 23.7037 13.0119 23.8475 12.8801C27.4308 9.59808 33.3149 11.4308 34.777 16.0064C35.7117 18.9291 36.5505 21.8758 37.3296 24.8464C38.2284 28.2362 35.9753 31.8177 32.5599 32.6082C29.7197 33.2671 26.6278 31.674 25.3934 28.883C24.6505 27.218 23.5 26.0083 21.7144 25.5651C20.0846 25.1698 18.4188 25.1578 16.8129 25.7328C15.231 26.2957 14.1525 27.4337 13.4813 28.9789C12.7504 30.6797 11.4919 31.8656 9.73035 32.4525C5.76367 33.7701 1.79688 31.075 1.53333 26.9066C1.52527 26.7469 1.52795 26.5872 1.53064 26.4275C1.53198 26.3476 1.53333 26.2678 1.53333 26.1879ZM9.93408 18.6536C9.78101 18.6536 9.6366 18.6522 9.49719 18.6508C9.23279 18.6482 8.98682 18.6458 8.73572 18.6536C8.0166 18.6896 7.51331 19.2166 7.53723 19.8754C7.54932 20.5103 8.05261 21.0013 8.74768 21.0373C8.99048 21.0451 9.2334 21.0427 9.49634 21.0401C9.63562 21.0387 9.78052 21.0373 9.93408 21.0373L9.93408 22.1034C9.94604 22.9179 10.4374 23.4449 11.1444 23.4329C11.8396 23.421 12.3069 22.9059 12.3188 22.1273C12.3268 21.899 12.3243 21.6708 12.3217 21.4289L12.3217 21.4289C12.3203 21.3027 12.3188 21.1728 12.3188 21.0373C12.4791 21.0373 12.626 21.0388 12.7646 21.0402L12.7648 21.0402C13.0204 21.0428 13.2483 21.045 13.4813 21.0373C14.2004 21.0133 14.7157 20.5103 14.7157 19.8395C14.7157 19.1807 14.2004 18.6776 13.4813 18.6536C13.2362 18.6457 12.9911 18.6483 12.7356 18.6509C12.6039 18.6523 12.4695 18.6536 12.3309 18.6536C12.3309 18.5041 12.3323 18.3633 12.3337 18.2281C12.3363 17.9732 12.3387 17.7385 12.3309 17.5037C12.3069 16.773 11.8036 16.258 11.1444 16.258C10.4734 16.246 9.96997 16.7611 9.94604 17.4798C9.92834 17.7447 9.9303 18.003 9.9325 18.3077L9.9325 18.3077C9.93323 18.4163 9.93408 18.5309 9.93408 18.6536ZM26.8795 19.7796C26.496 20.1629 26.2203 20.4144 25.9567 20.6899C25.3934 21.2769 25.3695 21.9955 25.8848 22.4986C26.3882 22.9897 27.0713 22.9538 27.6465 22.4028C27.9341 22.1273 28.1858 21.8279 28.5692 21.4206C28.8928 21.8039 29.1324 22.1273 29.4081 22.4148C29.9594 22.9658 30.6544 22.9897 31.1578 22.4986C31.6492 22.0195 31.6492 21.3008 31.1099 20.7379C30.8223 20.4384 30.4987 20.1868 30.1272 19.8395C30.5347 19.4801 30.8462 19.2286 31.1218 18.9411C31.6492 18.3901 31.6611 17.6714 31.1578 17.1803C30.6785 16.7132 29.9834 16.7251 29.4441 17.2402C29.1444 17.5277 28.8809 17.8511 28.5573 18.2104C28.2336 17.8631 27.994 17.5995 27.7423 17.348C27.1311 16.7371 26.4121 16.6772 25.8969 17.1923C25.3815 17.7073 25.4175 18.4261 26.0286 19.0369C26.2683 19.2765 26.5559 19.4921 26.8795 19.7796Z" clip-rule="evenodd" fill="" fill-opacity="1.000000" fill-rule="evenodd"/>
				</mask>
				<path id="Union" d="M18.3468 10.6881L20.7197 10.6881C20.7197 10.3158 20.7224 9.95163 20.7251 9.59244C20.7305 8.88861 20.7356 8.20386 20.7197 7.51389C20.6957 6.89102 20.1924 6.43585 19.5931 6.3999C18.994 6.37595 18.3948 6.7952 18.3589 7.3941C18.3253 8.15561 18.3328 8.91714 18.3403 9.68683C18.3436 10.0189 18.3468 10.3524 18.3468 10.6881ZM1.53333 26.1879C1.4845 24.8626 1.8562 23.6244 2.22876 22.3832C2.31421 22.0988 2.39954 21.8142 2.47998 21.5284C2.97131 19.7676 3.49866 18.0068 4.01392 16.246C5.38013 11.4907 11.3961 9.53821 15.0752 12.8681C15.231 13.0119 15.4946 13.0957 15.7103 13.0957Q17.661 13.105 19.6117 13.1047L19.6656 13.1047Q21.463 13.1043 23.2603 13.0957C23.452 13.0957 23.7037 13.0119 23.8475 12.8801C27.4308 9.59808 33.3149 11.4308 34.777 16.0064C35.7117 18.9291 36.5505 21.8758 37.3296 24.8464C38.2284 28.2362 35.9753 31.8177 32.5599 32.6082C29.7197 33.2671 26.6278 31.674 25.3934 28.883C24.6505 27.218 23.5 26.0083 21.7144 25.5651C20.0846 25.1698 18.4188 25.1578 16.8129 25.7328C15.231 26.2957 14.1525 27.4337 13.4813 28.9789C12.7504 30.6797 11.4919 31.8656 9.73035 32.4525C5.76367 33.7701 1.79688 31.075 1.53333 26.9066C1.52527 26.7469 1.52795 26.5872 1.53064 26.4275C1.53198 26.3476 1.53333 26.2678 1.53333 26.1879ZM9.93408 18.6536C9.78101 18.6536 9.6366 18.6522 9.49719 18.6508C9.23279 18.6482 8.98682 18.6458 8.73572 18.6536C8.0166 18.6896 7.51331 19.2166 7.53723 19.8754C7.54932 20.5103 8.05261 21.0013 8.74768 21.0373C8.99048 21.0451 9.2334 21.0427 9.49634 21.0401C9.63562 21.0387 9.78052 21.0373 9.93408 21.0373L9.93408 22.1034C9.94604 22.9179 10.4374 23.4449 11.1444 23.4329C11.8396 23.421 12.3069 22.9059 12.3188 22.1273C12.3268 21.899 12.3243 21.6708 12.3217 21.4289L12.3217 21.4289C12.3203 21.3027 12.3188 21.1728 12.3188 21.0373C12.4791 21.0373 12.626 21.0388 12.7646 21.0402L12.7648 21.0402C13.0204 21.0428 13.2483 21.045 13.4813 21.0373C14.2004 21.0133 14.7157 20.5103 14.7157 19.8395C14.7157 19.1807 14.2004 18.6776 13.4813 18.6536C13.2362 18.6457 12.9911 18.6483 12.7356 18.6509C12.6039 18.6523 12.4695 18.6536 12.3309 18.6536C12.3309 18.5041 12.3323 18.3633 12.3337 18.2281C12.3363 17.9732 12.3387 17.7385 12.3309 17.5037C12.3069 16.773 11.8036 16.258 11.1444 16.258C10.4734 16.246 9.96997 16.7611 9.94604 17.4798C9.92834 17.7447 9.9303 18.003 9.9325 18.3077L9.9325 18.3077C9.93323 18.4163 9.93408 18.5309 9.93408 18.6536ZM26.8795 19.7796C26.496 20.1629 26.2203 20.4144 25.9567 20.6899C25.3934 21.2769 25.3695 21.9955 25.8848 22.4986C26.3882 22.9897 27.0713 22.9538 27.6465 22.4028C27.9341 22.1273 28.1858 21.8279 28.5692 21.4206C28.8928 21.8039 29.1324 22.1273 29.4081 22.4148C29.9594 22.9658 30.6544 22.9897 31.1578 22.4986C31.6492 22.0195 31.6492 21.3008 31.1099 20.7379C30.8223 20.4384 30.4987 20.1868 30.1272 19.8395C30.5347 19.4801 30.8462 19.2286 31.1218 18.9411C31.6492 18.3901 31.6611 17.6714 31.1578 17.1803C30.6785 16.7132 29.9834 16.7251 29.4441 17.2402C29.1444 17.5277 28.8809 17.8511 28.5573 18.2104C28.2336 17.8631 27.994 17.5995 27.7423 17.348C27.1311 16.7371 26.4121 16.6772 25.8969 17.1923C25.3815 17.7073 25.4175 18.4261 26.0286 19.0369C26.2683 19.2765 26.5559 19.4921 26.8795 19.7796Z" clip-rule="evenodd" fill="#E60000" fill-opacity="1.000000" fill-rule="evenodd" mask="url(#mask_184_904)"/>
			</g>
			<path id="Union" d="M20.7197 10.6881L18.3468 10.6881C18.3468 10.3524 18.3436 10.0189 18.3403 9.68683C18.3328 8.91714 18.3253 8.15561 18.3589 7.3941C18.3948 6.7952 18.994 6.37595 19.5931 6.3999C20.1924 6.43585 20.6957 6.89102 20.7197 7.51389C20.7356 8.20386 20.7305 8.88861 20.7251 9.59244C20.7224 9.95163 20.7197 10.3158 20.7197 10.6881ZM19.7246 9.68811L19.3404 9.68811L19.3403 9.67703Q19.3256 8.1727 19.3571 7.45401Q19.3575 7.44705 19.36 7.44095Q19.38 7.39216 19.5333 7.3981Q19.658 7.40558 19.6995 7.46818Q19.7184 7.49677 19.72 7.53687Q19.7355 8.21149 19.7251 9.58472L19.7251 9.58749L19.7246 9.68811ZM1.53333 26.1879C1.53333 26.2678 1.53198 26.3476 1.53064 26.4275C1.52795 26.5872 1.52527 26.7469 1.53333 26.9066C1.79688 31.075 5.76367 33.7701 9.73035 32.4525C11.4919 31.8656 12.7504 30.6797 13.4813 28.9789C14.1525 27.4337 15.231 26.2957 16.8129 25.7328C18.4188 25.1578 20.0846 25.1698 21.7144 25.5651C23.5 26.0083 24.6505 27.218 25.3934 28.883C26.6278 31.674 29.7197 33.2671 32.5599 32.6082C35.9753 31.8177 38.2284 28.2362 37.3296 24.8464C36.5505 21.8758 35.7117 18.9291 34.777 16.0064C33.3149 11.4308 27.4308 9.59808 23.8475 12.8801C23.7037 13.0119 23.452 13.0957 23.2603 13.0957Q21.463 13.1043 19.6656 13.1047L19.6117 13.1047L19.4874 13.1047Q17.5989 13.1047 15.7103 13.0957C15.4946 13.0957 15.231 13.0119 15.0752 12.8681C11.3961 9.53821 5.38013 11.4907 4.01392 16.246C3.49866 18.0068 2.97131 19.7676 2.47998 21.5284C2.39954 21.8142 2.31421 22.0988 2.22876 22.3832L2.22858 22.3838C1.85608 23.6248 1.4845 24.8628 1.53333 26.1879ZM2.53333 26.1696L2.53259 26.1512Q2.48999 24.9914 3.18652 22.6707L3.18652 22.6707Q3.35986 22.0934 3.44263 21.7993Q3.80981 20.4834 4.58533 17.8489Q4.8446 16.9679 4.97375 16.5269Q5.39448 15.0624 6.32263 14.0746Q7.34256 12.9893 8.97522 12.4797Q10.6546 11.9555 12.104 12.3275Q13.3374 12.644 14.4042 13.6096Q14.5856 13.777 14.7971 13.8868Q15.1995 14.0957 15.7103 14.0957L19.6094 14.1047L19.6715 14.1047L23.2628 14.0957Q23.6907 14.0957 24.0459 13.9351Q24.3036 13.8185 24.5231 13.6174Q25.5524 12.6746 26.7491 12.3512Q28.1691 11.9675 29.8248 12.4558Q31.447 12.9342 32.4739 13.991Q33.3816 14.9251 33.8243 16.3108Q35.1188 20.3579 36.3623 25.1Q36.5993 25.9939 36.5205 26.8592Q36.4127 28.0444 35.7123 29.1757Q35.0362 30.2677 34.0628 30.9065Q33.2918 31.4124 32.3344 31.634Q30.3538 32.0934 28.901 31.4178Q27.2731 30.6608 26.308 28.4785Q25.373 26.3834 23.7586 25.3577Q22.9436 24.8398 21.9553 24.5945Q19.5036 23.9999 17.3294 24.5342Q16.8971 24.6404 16.4758 24.7913Q15.4831 25.1446 14.6891 25.756Q13.3394 26.7953 12.5641 28.5805Q12.0636 29.745 11.2031 30.4982Q10.4475 31.1596 9.41431 31.5038Q8.04451 31.9588 6.79396 31.7381Q5.75811 31.5553 4.80408 30.909Q3.85598 30.2666 3.30089 29.3786Q2.62306 28.2942 2.53125 26.8435Q2.52576 26.7303 2.53052 26.4442L2.53052 26.4442Q2.53333 26.2761 2.53333 26.1879L2.53333 26.1696ZM9.93703 17.6536C9.92926 17.859 9.93076 18.0674 9.93247 18.3035L9.9325 18.3077L9.9325 18.3077C9.93323 18.4163 9.93408 18.5309 9.93408 18.6536C9.78101 18.6536 9.6366 18.6522 9.49719 18.6508L9.49503 18.6508C9.30126 18.6489 9.11735 18.6471 8.93404 18.6494C8.868 18.6502 8.80204 18.6516 8.73572 18.6536C8.0166 18.6896 7.51331 19.2166 7.53723 19.8754C7.54932 20.5103 8.05261 21.0013 8.74768 21.0373C8.8097 21.0393 8.87172 21.0406 8.93408 21.0415C9.11588 21.0439 9.30056 21.0421 9.49634 21.0401C9.63562 21.0387 9.78052 21.0373 9.93408 21.0373L9.93408 22.1034C9.94604 22.9179 10.4374 23.4449 11.1444 23.4329C11.8396 23.421 12.3069 22.9059 12.3188 22.1273C12.3199 22.0973 12.3208 22.0673 12.3215 22.0373C12.3261 21.8388 12.324 21.639 12.3217 21.4289L12.3217 21.4289C12.3203 21.3027 12.3188 21.1728 12.3188 21.0373C12.4791 21.0373 12.626 21.0388 12.7646 21.0402L12.7648 21.0402L12.765 21.0402C12.961 21.0422 13.1407 21.044 13.3189 21.0412C13.3731 21.0404 13.4271 21.0391 13.4813 21.0373C14.2004 21.0133 14.7157 20.5103 14.7157 19.8395C14.7157 19.1807 14.2004 18.6776 13.4813 18.6536C13.4312 18.652 13.3811 18.6508 13.3309 18.65C13.1359 18.6468 12.9396 18.6488 12.7367 18.6509L12.7356 18.6509C12.6039 18.6523 12.4695 18.6536 12.3309 18.6536C12.3309 18.5041 12.3323 18.3633 12.3337 18.2281L12.3338 18.2221C12.3358 18.0237 12.3377 17.8373 12.3346 17.6536C12.3338 17.6035 12.3326 17.5536 12.3309 17.5037C12.3069 16.773 11.8036 16.258 11.1444 16.258C10.4734 16.246 9.96997 16.7611 9.94604 17.4798C9.94216 17.5379 9.93923 17.5956 9.93703 17.6536ZM8.93748 17.6497Q8.80388 17.651 8.70447 17.6541Q7.53023 17.7127 6.99165 18.3278Q6.50071 18.8886 6.53796 19.9118Q6.55582 20.8625 7.03742 21.3889Q7.57636 21.9781 8.69604 22.0359Q8.79896 22.0393 8.93408 22.0408L8.93408 22.1034Q8.94519 22.8644 9.28852 23.4201Q9.39805 23.5974 9.54138 23.7538Q9.82223 24.0602 10.1699 24.2284Q10.6117 24.4421 11.1614 24.4328Q12.1572 24.4156 12.6935 23.9105Q13.3003 23.339 13.3187 22.1427Q13.3203 22.0969 13.3214 22.0408Q13.4315 22.0395 13.5146 22.0367Q14.6564 21.9987 15.2059 21.4089Q15.7157 20.8617 15.7157 19.8395Q15.7157 18.8292 15.212 18.2854Q14.6628 17.6924 13.5146 17.6542Q13.4356 17.6516 13.3343 17.6503Q13.3329 17.5487 13.3303 17.4704Q13.2923 16.3113 12.6941 15.7594Q12.1505 15.258 11.1444 15.258Q10.1341 15.2399 9.58766 15.7344Q8.99059 16.2747 8.94734 17.427Q8.9412 17.5237 8.93748 17.6497ZM26.1197 19.1249C26.34 19.3309 26.5959 19.5277 26.8795 19.7796C26.594 20.0649 26.3682 20.2773 26.1627 20.4809C26.0922 20.5507 26.024 20.6196 25.9567 20.6899C25.3934 21.2769 25.3695 21.9955 25.8848 22.4986C26.3882 22.9897 27.0713 22.9538 27.6465 22.4028C27.7277 22.325 27.8061 22.2453 27.8854 22.1617C28.0868 21.9496 28.2941 21.7128 28.5692 21.4206C28.814 21.7105 29.0108 21.9662 29.2114 22.198C29.276 22.2726 29.341 22.3448 29.4081 22.4148C29.9594 22.9658 30.6544 22.9897 31.1578 22.4986C31.6492 22.0195 31.6492 21.3008 31.1099 20.7379C31.035 20.6599 30.9577 20.5852 30.8778 20.5112C30.6506 20.3009 30.402 20.0964 30.1272 19.8395C30.4214 19.58 30.6656 19.3768 30.8823 19.1756C30.9658 19.0982 31.0452 19.021 31.1218 18.9411C31.6492 18.3901 31.6611 17.6714 31.1578 17.1803C30.6785 16.7132 29.9834 16.7251 29.4441 17.2402C29.3696 17.3116 29.2974 17.3853 29.2259 17.4611C29.0097 17.6906 28.8005 17.9404 28.5573 18.2104C28.2889 17.9223 28.0782 17.6919 27.8706 17.4782C27.8279 17.4342 27.7853 17.3909 27.7423 17.348C27.1311 16.7371 26.4121 16.6772 25.8969 17.1923C25.3815 17.7073 25.4175 18.4261 26.0286 19.0369C26.0582 19.0666 26.0886 19.0958 26.1197 19.1249ZM28.5402 16.7329Q28.4905 16.682 28.4492 16.6407Q27.514 15.7059 26.6255 15.7484Q25.8918 15.7835 25.1898 16.485Q24.7803 16.8943 24.6278 17.3837Q24.5161 17.7424 24.5424 18.144Q24.5547 18.3328 24.5978 18.5144Q24.755 19.1778 25.3217 19.7442Q25.3589 19.7814 25.405 19.8248Q25.3034 19.9263 25.2343 19.9985Q24.3747 20.8942 24.4157 21.7466Q24.4518 22.4972 25.1863 23.2142Q25.8906 23.9014 26.6211 23.9305Q27.4622 23.964 28.3381 23.125Q28.4194 23.0472 28.5284 22.9343Q28.6166 23.0342 28.6863 23.1069Q29.5425 23.9629 30.3791 23.9441Q31.1255 23.9273 31.8562 23.2144Q32.5955 22.4935 32.6271 21.7427Q32.6621 20.9126 31.832 20.0461Q31.7483 19.9589 31.6278 19.8453Q31.7559 19.7247 31.8436 19.6332Q32.6646 18.7754 32.6327 17.9505Q32.6035 17.1937 31.8562 16.4646Q31.1374 15.7641 30.3992 15.743Q29.588 15.7199 28.7534 16.517Q28.6604 16.6063 28.5402 16.7329Z" clip-rule="evenodd" fill="#E60000" fill-opacity="1.000000" fill-rule="evenodd"/>
		</g>
	</g>
</svg>
