<svg width="24.000000" height="24.000000" viewBox="0 0 24 24" fill="none" xmlns="http://www.w3.org/2000/svg" xmlns:xlink="http://www.w3.org/1999/xlink">
	<desc>
			Created with Pixso.
	</desc>
	<defs>
		<clipPath id="clip291_4952">
			<rect id="Icon" width="24.000000" height="24.000000" fill="white" fill-opacity="0"/>
		</clipPath>
	</defs>
	<g clip-path="url(#clip291_4952)">
		<path id="Vector (Stroke)" d="M3 6.75C3 6.33 3.33 6 3.75 6L20.25 6C20.66 6 21 6.33 21 6.75C21 7.16 20.66 7.5 20.25 7.5L3.75 7.5C3.33 7.5 3 7.16 3 6.75ZM3 12C3 11.58 3.33 11.25 3.75 11.25L20.25 11.25C20.66 11.25 21 11.58 21 12C21 12.41 20.66 12.75 20.25 12.75L3.75 12.75C3.33 12.75 3 12.41 3 12ZM11.25 17.25C11.25 16.83 11.58 16.5 12 16.5L20.25 16.5C20.66 16.5 21 16.83 21 17.25C21 17.66 20.66 18 20.25 18L12 18C11.58 18 11.25 17.66 11.25 17.25Z" fill="#FFFFFF" fill-opacity="1.000000" fill-rule="evenodd"/>
	</g>
</svg>
