<svg width="40.000000" height="40.000000" viewBox="0 0 40 40" fill="none" xmlns="http://www.w3.org/2000/svg" xmlns:xlink="http://www.w3.org/1999/xlink">
	<desc>
			Created with Pixso.
	</desc>
	<defs>
		<filter id="filter_184_899_dd" x="1.804016" y="6.199951" width="36.606995" height="26.799988" filterUnits="userSpaceOnUse" color-interpolation-filters="sRGB">
			<feFlood flood-opacity="0" result="BackgroundImageFix"/>
			<feGaussianBlur in="BackgroundImage" stdDeviation="4"/>
			<feComposite in2="SourceAlpha" operator="in" result="effect_backgroundBlur_1"/>
			<feBlend mode="normal" in="SourceGraphic" in2="effect_backgroundBlur_1" result="shape"/>
		</filter>
		<clipPath id="clip184_898">
			<rect id="Frame" width="36.599998" height="26.799999" transform="translate(1.800049 6.199951)" fill="white" fill-opacity="0"/>
		</clipPath>
		<clipPath id="clip184_897">
			<rect id="Icon" width="40.000000" height="40.000000" fill="white" fill-opacity="0"/>
		</clipPath>
	</defs>
	<g clip-path="url(#clip184_897)">
		<rect id="Frame" width="36.599998" height="26.799999" transform="translate(1.800049 6.199951)" fill="#FFFFFF" fill-opacity="0"/>
		<g clip-path="url(#clip184_898)">
			<g filter="url(#filter_184_899_dd)">
				<mask id="mask_184_899" fill="white">
					<path id="Union" d="M33.1365 6.19995L7.13672 6.19995C5.81775 6.19995 5.45142 6.5654 5.45142 7.84448L5.45142 21.61C5.45142 22.8769 5.82996 23.2545 7.07562 23.2545L33.1365 23.2545C34.3821 23.2545 34.7607 22.8769 34.7607 21.61L34.7607 7.84448C34.7607 6.57758 34.3821 6.19995 33.1365 6.19995ZM3.37531 32.9999L36.849 32.9999C37.1421 32.9999 37.4596 32.9878 37.7405 32.8903C38.3877 32.6711 38.5831 32.135 38.2534 31.5381C37.0933 29.4185 35.9209 27.311 34.7485 25.2036C34.4677 24.7163 34.0646 24.4727 33.5028 24.4727L6.69702 24.4727C6.13531 24.4727 5.7323 24.7163 5.46362 25.2036C4.29126 27.311 3.1189 29.4185 1.95874 31.5381C1.62897 32.135 1.83661 32.6711 2.48383 32.8903C2.7525 32.9878 3.07001 32.9999 3.37531 32.9999ZM20.8632 30.5663C20.6068 30.5649 20.3503 30.5636 20.0939 30.5636C19.8379 30.5636 19.5818 30.5649 19.3254 30.5663C18.8112 30.569 18.295 30.5717 17.7736 30.5636C16.9919 30.5514 16.4546 30.0641 16.4424 29.3698C16.4302 28.651 16.9797 28.1394 17.798 28.1394C19.3367 28.1272 20.8877 28.1272 22.4264 28.1394C23.208 28.1516 23.7454 28.6389 23.7576 29.3332C23.7698 30.0398 23.2202 30.5514 22.402 30.5636C21.889 30.5717 21.3761 30.569 20.8632 30.5663Z" clip-rule="evenodd" fill="" fill-opacity="1.000000" fill-rule="evenodd"/>
				</mask>
				<path id="Union" d="M33.1365 6.19995L7.13672 6.19995C5.81775 6.19995 5.45142 6.5654 5.45142 7.84448L5.45142 21.61C5.45142 22.8769 5.82996 23.2545 7.07562 23.2545L33.1365 23.2545C34.3821 23.2545 34.7607 22.8769 34.7607 21.61L34.7607 7.84448C34.7607 6.57758 34.3821 6.19995 33.1365 6.19995ZM3.37531 32.9999L36.849 32.9999C37.1421 32.9999 37.4596 32.9878 37.7405 32.8903C38.3877 32.6711 38.5831 32.135 38.2534 31.5381C37.0933 29.4185 35.9209 27.311 34.7485 25.2036C34.4677 24.7163 34.0646 24.4727 33.5028 24.4727L6.69702 24.4727C6.13531 24.4727 5.7323 24.7163 5.46362 25.2036C4.29126 27.311 3.1189 29.4185 1.95874 31.5381C1.62897 32.135 1.83661 32.6711 2.48383 32.8903C2.7525 32.9878 3.07001 32.9999 3.37531 32.9999ZM20.8632 30.5663C20.6068 30.5649 20.3503 30.5636 20.0939 30.5636C19.8379 30.5636 19.5818 30.5649 19.3254 30.5663C18.8112 30.569 18.295 30.5717 17.7736 30.5636C16.9919 30.5514 16.4546 30.0641 16.4424 29.3698C16.4302 28.651 16.9797 28.1394 17.798 28.1394C19.3367 28.1272 20.8877 28.1272 22.4264 28.1394C23.208 28.1516 23.7454 28.6389 23.7576 29.3332C23.7698 30.0398 23.2202 30.5514 22.402 30.5636C21.889 30.5717 21.3761 30.569 20.8632 30.5663Z" clip-rule="evenodd" fill="#E60000" fill-opacity="1.000000" fill-rule="evenodd" mask="url(#mask_184_899)"/>
			</g>
			<path id="Union" d="M7.13672 6.19995L33.1365 6.19995C34.3821 6.19995 34.7607 6.57758 34.7607 7.84448L34.7607 21.61C34.7607 22.8769 34.3821 23.2545 33.1365 23.2545L7.07562 23.2545C5.82996 23.2545 5.45142 22.8769 5.45142 21.61L5.45142 7.84448C5.45142 6.5654 5.81775 6.19995 7.13672 6.19995ZM7.13672 7.19995L33.1365 7.19995Q33.4386 7.19995 33.5945 7.35096Q33.7607 7.51193 33.7607 7.84448L33.7607 21.61Q33.7607 21.9425 33.5945 22.1035Q33.4386 22.2545 33.1365 22.2545L7.07562 22.2545Q6.77352 22.2545 6.61762 22.1035Q6.45142 21.9425 6.45142 21.61L6.45142 7.84448Q6.45142 7.54196 6.60239 7.38143Q6.77308 7.19995 7.13672 7.19995ZM36.849 32.9999L3.37531 32.9999C3.07001 32.9999 2.7525 32.9878 2.48383 32.8903C1.83661 32.6711 1.62897 32.135 1.95874 31.5381C3.1189 29.4185 4.29126 27.311 5.46362 25.2036C5.7323 24.7163 6.13531 24.4727 6.69702 24.4727L33.5028 24.4727C34.0646 24.4727 34.4677 24.7163 34.7485 25.2036C35.9209 27.311 37.0933 29.4185 38.2534 31.5381C38.5831 32.135 38.3877 32.6711 37.7405 32.8903C37.4596 32.9878 37.1421 32.9999 36.849 32.9999ZM36.849 31.9999L3.37531 31.9999Q3.03408 31.9999 2.86742 31.9613L6.33936 25.6864Q6.40022 25.576 6.49369 25.5226Q6.5811 25.4727 6.69702 25.4727L33.5028 25.4727Q33.6244 25.4727 33.7162 25.525Q33.8106 25.5787 33.8735 25.6877L37.3461 31.9638Q37.1806 31.9999 36.849 31.9999ZM20.8568 31.5663L20.8579 31.5663Q21.8943 31.5717 22.4169 31.5635Q23.115 31.5531 23.6481 31.2512Q23.8715 31.1246 24.0659 30.9468Q24.3948 30.6461 24.5673 30.2732Q24.7665 29.8426 24.7573 29.3156Q24.7398 28.3196 24.2348 27.7793Q23.6544 27.1584 22.4303 27.1394L20.108 27.1303L17.798 27.1394Q17.1031 27.1394 16.5701 27.4332Q16.3365 27.5619 16.134 27.7471Q15.8152 28.0385 15.6433 28.3998Q15.4333 28.8414 15.4426 29.3874Q15.4602 30.3891 15.9683 30.9298Q16.5461 31.5446 17.7579 31.5635Q18.29 31.5717 19.3289 31.5663L20.0903 31.5636L20.0907 31.5636L20.8568 31.5663ZM20.0939 30.5636C20.3503 30.5636 20.6068 30.5649 20.8632 30.5663C21.3761 30.569 21.889 30.5717 22.402 30.5636C23.2202 30.5514 23.7698 30.0398 23.7576 29.3332C23.7454 28.6389 23.208 28.1516 22.4264 28.1394C20.8877 28.1272 19.3367 28.1272 17.798 28.1394C16.9797 28.1394 16.4302 28.651 16.4424 29.3698C16.4546 30.0641 16.9919 30.5514 17.7736 30.5636C18.295 30.5717 18.8112 30.569 19.3254 30.5663C19.5818 30.5649 19.8379 30.5636 20.0939 30.5636Z" clip-rule="evenodd" fill="#E60000" fill-opacity="1.000000" fill-rule="evenodd"/>
		</g>
	</g>
</svg>
