<svg width="40.000000" height="40.000000" viewBox="0 0 40 40" fill="none" xmlns="http://www.w3.org/2000/svg" xmlns:xlink="http://www.w3.org/1999/xlink">
	<desc>
			Created with Pixso.
	</desc>
	<defs>
		<filter id="filter_184_845_dd" x="10.395020" y="1.602783" width="19.654907" height="36.005615" filterUnits="userSpaceOnUse" color-interpolation-filters="sRGB">
			<feFlood flood-opacity="0" result="BackgroundImageFix"/>
			<feGaussianBlur in="BackgroundImage" stdDeviation="4"/>
			<feComposite in2="SourceAlpha" operator="in" result="effect_backgroundBlur_1"/>
			<feBlend mode="normal" in="SourceGraphic" in2="effect_backgroundBlur_1" result="shape"/>
		</filter>
		<clipPath id="clip184_844">
			<rect id="Frame" width="19.641476" height="36.000000" transform="translate(10.400024 1.600098)" fill="white" fill-opacity="0"/>
		</clipPath>
		<clipPath id="clip184_843">
			<rect id="Icon" width="40.000000" height="40.000000" fill="white" fill-opacity="0"/>
		</clipPath>
	</defs>
	<g clip-path="url(#clip184_843)">
		<rect id="Frame" width="19.641476" height="36.000000" transform="translate(10.400024 1.600098)" fill="#FFFFFF" fill-opacity="0"/>
		<g clip-path="url(#clip184_844)">
			<g filter="url(#filter_184_845_dd)">
				<path id="Vector" d="M10.4 19.6C10.4 14.95 10.38 10.3 10.4 5.65C10.4 3.74 11.36 2.35 13.06 1.8C13.46 1.66 13.9 1.61 14.33 1.61C18.25 1.59 22.18 1.59 26.09 1.61C28.37 1.62 30.04 3.27 30.04 5.54C30.05 14.92 30.05 24.28 30.04 33.66C30.04 35.93 28.37 37.59 26.1 37.59C22.22 37.61 18.34 37.61 14.47 37.59C12.04 37.59 10.42 36 10.41 33.55C10.38 28.89 10.4 24.25 10.4 19.6ZM20.22 4.87C19.46 4.87 18.69 4.87 17.92 4.87C17.31 4.88 16.97 5.16 16.96 5.65C16.95 6.16 17.26 6.51 17.85 6.51C19.42 6.53 20.99 6.53 22.56 6.51C23.12 6.5 23.5 6.11 23.48 5.65C23.46 5.18 23.09 4.87 22.51 4.87C21.75 4.87 20.99 4.87 20.22 4.87ZM20.22 31.07C19.3 31.07 18.57 31.8 18.58 32.7C18.59 33.6 19.34 34.33 20.24 34.32C21.12 34.31 21.83 33.59 21.83 32.7C21.84 31.77 21.14 31.07 20.22 31.07Z" fill="#E60000" fill-opacity="1.000000" fill-rule="nonzero"/>
			</g>
			<path id="Vector" d="M10.4 19.6C10.4 18.05 10.39 16.5 10.39 14.95C10.39 11.85 10.39 8.75 10.4 5.65C10.4 3.74 11.36 2.35 13.06 1.8C13.46 1.66 13.9 1.61 14.33 1.61C18.25 1.59 22.18 1.59 26.09 1.61C28.37 1.62 30.04 3.27 30.04 5.54C30.05 14.92 30.05 24.28 30.04 33.66C30.04 35.93 28.37 37.59 26.1 37.59Q23.19 37.6 20.28 37.6Q17.37 37.6 14.47 37.59C12.04 37.59 10.42 36 10.41 33.55C10.39 30.06 10.39 26.57 10.39 23.09C10.39 21.92 10.4 20.76 10.4 19.6ZM11.39 12.63L11.4 5.65L11.4 5.65Q11.4 4.53 11.91 3.78Q12.02 3.64 12.14 3.5Q12.61 2.99 13.37 2.75Q13.8 2.61 14.33 2.61L26.09 2.61Q26.74 2.61 27.3 2.83Q27.67 2.98 27.97 3.22Q28.1 3.32 28.21 3.43Q28.35 3.57 28.46 3.72Q28.68 4.01 28.81 4.34Q29.04 4.9 29.04 5.54L29.04 19.6L29.04 33.66Q29.04 34.31 28.81 34.86Q28.67 35.21 28.45 35.5Q28.34 35.64 28.21 35.77Q28.08 35.9 27.94 36.01Q27.65 36.23 27.3 36.37Q26.75 36.59 26.1 36.59L20.36 36.6L14.47 36.59Q13.75 36.59 13.16 36.37Q12.7 36.2 12.36 35.9Q12.29 35.84 12.23 35.78Q12.18 35.72 12.12 35.66Q11.81 35.31 11.64 34.85Q11.41 34.27 11.41 33.54L11.39 26.57L11.4 19.6L11.39 12.63ZM20.22 3.87L17.92 3.87L17.9 3.87Q17.18 3.88 16.69 4.22Q16.63 4.26 16.58 4.31Q16.43 4.43 16.31 4.58Q16.2 4.74 16.12 4.92Q16.11 4.94 16.1 4.96Q15.97 5.27 15.96 5.63Q15.95 6 16.07 6.33Q16.07 6.33 16.07 6.34Q16.15 6.56 16.28 6.75Q16.37 6.87 16.47 6.98Q16.56 7.06 16.65 7.13Q16.86 7.29 17.12 7.39Q17.46 7.51 17.85 7.51Q20.2 7.54 22.57 7.51Q22.94 7.5 23.27 7.38Q23.29 7.37 23.31 7.37Q23.55 7.27 23.76 7.12Q23.85 7.05 23.93 6.98Q24.09 6.82 24.21 6.64Q24.29 6.51 24.35 6.36Q24.42 6.2 24.45 6.02Q24.49 5.82 24.48 5.6Q24.47 5.34 24.39 5.1Q24.35 4.99 24.3 4.89Q24.22 4.74 24.12 4.6Q24 4.44 23.84 4.31Q23.79 4.27 23.74 4.23Q23.5 4.06 23.21 3.97Q22.88 3.87 22.51 3.87L20.22 3.87L20.22 3.87ZM22.51 4.87L17.92 4.87C17.31 4.88 16.97 5.16 16.96 5.65C16.95 6.16 17.26 6.51 17.85 6.51C19.42 6.53 20.99 6.53 22.56 6.51C23.12 6.5 23.5 6.11 23.48 5.65C23.46 5.18 23.09 4.87 22.51 4.87ZM17.64 32.15Q17.58 32.43 17.58 32.72Q17.58 32.98 17.64 33.24Q17.69 33.5 17.8 33.74Q17.9 33.96 18.03 34.15Q18.18 34.38 18.38 34.57Q18.58 34.76 18.81 34.91Q19 35.04 19.23 35.13Q19.48 35.23 19.73 35.28Q19.99 35.33 20.26 35.32Q20.53 35.32 20.8 35.26Q21.04 35.21 21.26 35.11Q21.48 35.01 21.67 34.88Q21.89 34.73 22.08 34.54Q22.26 34.36 22.4 34.15Q22.53 33.94 22.63 33.71Q22.72 33.49 22.77 33.26Q22.83 32.99 22.83 32.7Q22.83 32.41 22.77 32.12Q22.73 31.9 22.64 31.69Q22.54 31.42 22.38 31.19Q22.25 31 22.09 30.84Q21.92 30.67 21.74 30.54Q21.51 30.38 21.24 30.27Q21.09 30.21 20.94 30.17Q20.59 30.07 20.22 30.07Q19.91 30.07 19.62 30.14Q19.4 30.19 19.19 30.28Q18.94 30.38 18.72 30.53Q18.52 30.67 18.35 30.84Q18.15 31.04 18 31.26Q17.87 31.46 17.78 31.69Q17.68 31.91 17.64 32.15ZM20.22 31.07C19.3 31.07 18.57 31.8 18.58 32.7C18.59 33.6 19.34 34.33 20.24 34.32C21.12 34.31 21.83 33.59 21.83 32.7C21.84 31.77 21.14 31.07 20.22 31.07Z" fill="#E60000" fill-opacity="1.000000" fill-rule="evenodd"/>
		</g>
	</g>
</svg>
