<svg width="24.000000" height="24.000000" viewBox="0 0 24 24" fill="none" xmlns="http://www.w3.org/2000/svg" xmlns:xlink="http://www.w3.org/1999/xlink">
	<desc>
			Created with Pixso.
	</desc>
	<defs>
		<clipPath id="clip249_872">
			<rect id="Icon" width="24.000000" height="24.000000" fill="white" fill-opacity="0"/>
		</clipPath>
	</defs>
	<g clip-path="url(#clip249_872)">
		<path id="Union" d="M5.56 4.65C5.94 4.55 6.33 4.5 6.75 4.5L17.25 4.5C17.65 4.5 18.05 4.55 18.43 4.65C17.94 3.67 16.92 3 15.75 3L8.25 3C7.07 3 6.05 3.67 5.56 4.65ZM4.06 7.65C4.44 7.55 4.83 7.5 5.25 7.5L18.75 7.5C19.15 7.5 19.55 7.55 19.93 7.65C19.44 6.67 18.42 6 17.25 6L6.75 6C5.57 6 4.55 6.67 4.06 7.65ZM2.25 12C2.25 10.34 3.59 9 5.25 9L18.75 9C20.4 9 21.75 10.34 21.75 12L21.75 18C21.75 19.65 20.4 21 18.75 21L5.25 21C3.59 21 2.25 19.65 2.25 18L2.25 12Z" fill="#999999" fill-opacity="1.000000" fill-rule="evenodd"/>
	</g>
</svg>
