<svg width="40.000000" height="40.000000" viewBox="0 0 40 40" fill="none" xmlns="http://www.w3.org/2000/svg" xmlns:xlink="http://www.w3.org/1999/xlink">
	<desc>
			Created with Pixso.
	</desc>
	<defs>
		<filter id="filter_184_890_dd" x="5.733398" y="1.600098" width="27.452637" height="36.000000" filterUnits="userSpaceOnUse" color-interpolation-filters="sRGB">
			<feFlood flood-opacity="0" result="BackgroundImageFix"/>
			<feGaussianBlur in="BackgroundImage" stdDeviation="4"/>
			<feComposite in2="SourceAlpha" operator="in" result="effect_backgroundBlur_1"/>
			<feBlend mode="normal" in="SourceGraphic" in2="effect_backgroundBlur_1" result="shape"/>
		</filter>
		<clipPath id="clip184_889">
			<rect id="Frame" width="27.452671" height="36.000000" transform="translate(5.733398 1.600098)" fill="white" fill-opacity="0"/>
		</clipPath>
		<clipPath id="clip184_888">
			<rect id="Icon" width="40.000000" height="40.000000" transform="translate(-0.666626 0.000000)" fill="white" fill-opacity="0"/>
		</clipPath>
	</defs>
	<g clip-path="url(#clip184_888)">
		<rect id="Frame" width="27.452671" height="36.000000" transform="translate(5.733398 1.600098)" fill="#FFFFFF" fill-opacity="0"/>
		<g clip-path="url(#clip184_889)">
			<g filter="url(#filter_184_890_dd)">
				<path id="Vector" d="M5.73 19.58C5.73 14.76 5.73 9.94 5.73 5.13C5.73 2.89 7.02 1.6 9.25 1.6C16.05 1.6 22.86 1.6 29.66 1.6C31.89 1.6 33.18 2.89 33.18 5.13C33.18 14.79 33.18 24.44 33.18 34.1C33.18 36.29 31.88 37.6 29.69 37.6C22.87 37.6 16.05 37.6 9.23 37.6C7.04 37.6 5.74 36.28 5.74 34.1C5.73 29.26 5.73 24.41 5.73 19.58ZM16.33 33.33C18.43 33.33 20.5 33.33 22.56 33.33C22.56 32.64 22.56 31.99 22.56 31.33C20.46 31.33 18.4 31.33 16.33 31.33C16.33 32.02 16.33 32.67 16.33 33.33Z" fill="#E60000" fill-opacity="1.000000" fill-rule="nonzero"/>
			</g>
			<path id="Vector" d="M5.73 19.58L5.73 5.13C5.73 2.89 7.02 1.6 9.25 1.6L29.66 1.6C31.89 1.6 33.18 2.89 33.18 5.13L33.18 34.1C33.18 36.29 31.88 37.6 29.69 37.6L9.23 37.6C7.04 37.6 5.74 36.28 5.74 34.1C5.73 29.26 5.73 24.41 5.73 19.58ZM6.73 12.35L6.73 5.13Q6.73 3.86 7.36 3.22Q7.99 2.6 9.25 2.6L29.66 2.6Q30.92 2.6 31.55 3.22Q32.18 3.86 32.18 5.13L32.18 34.1Q32.18 35.35 31.55 35.98Q30.93 36.6 29.69 36.6L9.23 36.6Q7.99 36.6 7.37 35.98Q6.74 35.35 6.74 34.1L6.73 26.84L6.73 19.58L6.73 12.35ZM23.56 34.33L23.56 30.33L15.33 30.33L15.33 34.33L23.56 34.33ZM21.56 33.33L16.33 33.33L16.33 32.33L16.33 32.33L16.33 31.33L22.56 31.33L22.56 32.33L22.56 32.33L22.56 33.33L21.56 33.33Z" fill="#E60000" fill-opacity="1.000000" fill-rule="evenodd"/>
		</g>
	</g>
</svg>
