<svg width="40.000000" height="40.000000" viewBox="0 0 40 40" fill="none" xmlns="http://www.w3.org/2000/svg" xmlns:xlink="http://www.w3.org/1999/xlink">
	<desc>
			Created with Pixso.
	</desc>
	<defs>
		<filter id="filter_184_894_dd" x="2.455566" y="6.800049" width="34.622314" height="25.604050" filterUnits="userSpaceOnUse" color-interpolation-filters="sRGB">
			<feFlood flood-opacity="0" result="BackgroundImageFix"/>
			<feGaussianBlur in="BackgroundImage" stdDeviation="4"/>
			<feComposite in2="SourceAlpha" operator="in" result="effect_backgroundBlur_1"/>
			<feBlend mode="normal" in="SourceGraphic" in2="effect_backgroundBlur_1" result="shape"/>
		</filter>
		<clipPath id="clip184_892">
			<rect id="Frame" width="34.599998" height="25.600000" transform="translate(2.466797 6.800049)" fill="white" fill-opacity="0"/>
		</clipPath>
		<clipPath id="clip184_891">
			<rect id="Icon" width="40.000000" height="40.000000" transform="translate(-0.333252 0.000000)" fill="white" fill-opacity="0"/>
		</clipPath>
	</defs>
	<g clip-path="url(#clip184_891)">
		<rect id="Frame" width="34.599998" height="25.600000" transform="translate(2.466797 6.800049)" fill="#FFFFFF" fill-opacity="0"/>
		<g clip-path="url(#clip184_892)">
			<g filter="url(#filter_184_894_dd)">
				<mask id="mask_184_894" fill="white">
					<path id="Union" d="M2.4668 23.8258L2.4668 8.32957C2.4668 7.26895 2.92456 6.80005 4.00708 6.80005L35.5378 6.80005C36.6091 6.80005 37.0779 7.26895 37.0779 8.31841L37.0779 23.8146C25.5371 23.8258 14.041 23.8258 2.4668 23.8258ZM17.3113 19.1144C19.2422 17.998 21.0728 16.9373 22.9924 15.8321C21.0615 14.7156 19.2087 13.655 17.3113 12.5497L17.3113 19.1144ZM32.3567 31.6074C32.0776 30.7477 31.7092 29.9215 31.3411 28.9837L31.3418 28.9837C32.8481 28.9837 34.2654 28.9837 35.6604 28.9726C36.4194 28.9614 36.9998 28.5372 37.0332 27.8561C37.0718 27.2079 37.0625 26.5544 37.053 25.8955C37.0486 25.6011 37.0444 25.3057 37.0444 25.0092L2.45557 25.0092L2.45557 27.3761C2.45557 28.5037 2.92432 28.9726 4.04053 28.9726L8.1814 28.9726C7.83521 29.8434 7.51172 30.6472 7.18799 31.4511C7.05396 31.8083 6.99829 32.1656 7.44458 32.3331C7.87988 32.5005 8.09204 32.2103 8.23706 31.853C8.57202 31.0268 8.9292 30.2118 9.23047 29.3745C9.35327 29.0507 9.52075 28.9726 9.84424 28.9726Q14.8083 28.9809 19.7722 28.9809Q24.7363 28.9809 29.7002 28.9726C30.0464 28.9726 30.1914 29.0842 30.303 29.3968C30.5933 30.1672 30.9058 30.9152 31.2183 31.6744C31.2739 31.7972 31.3186 31.9088 31.3745 32.0316C31.5195 32.3554 31.8208 32.5117 32.0889 32.3219C32.2673 32.1991 32.4236 31.8083 32.3567 31.6074ZM23.9856 27.2086L19.7444 27.2086C19.2761 27.2086 18.8064 27.2074 18.3364 27.2061C17.3953 27.2036 16.4521 27.2011 15.5142 27.2086C15.1348 27.2086 14.7664 27.1639 14.7554 26.6839C14.7441 26.1926 15.1125 26.0921 15.5254 26.0921L23.9968 26.0921C24.3987 26.0921 24.7781 26.1815 24.7781 26.6727C24.7781 27.1863 24.3762 27.2086 23.9856 27.2086Z" clip-rule="evenodd" fill="" fill-opacity="1.000000" fill-rule="evenodd"/>
				</mask>
				<path id="Union" d="M2.4668 23.8258L2.4668 8.32957C2.4668 7.26895 2.92456 6.80005 4.00708 6.80005L35.5378 6.80005C36.6091 6.80005 37.0779 7.26895 37.0779 8.31841L37.0779 23.8146C25.5371 23.8258 14.041 23.8258 2.4668 23.8258ZM17.3113 19.1144C19.2422 17.998 21.0728 16.9373 22.9924 15.8321C21.0615 14.7156 19.2087 13.655 17.3113 12.5497L17.3113 19.1144ZM32.3567 31.6074C32.0776 30.7477 31.7092 29.9215 31.3411 28.9837L31.3418 28.9837C32.8481 28.9837 34.2654 28.9837 35.6604 28.9726C36.4194 28.9614 36.9998 28.5372 37.0332 27.8561C37.0718 27.2079 37.0625 26.5544 37.053 25.8955C37.0486 25.6011 37.0444 25.3057 37.0444 25.0092L2.45557 25.0092L2.45557 27.3761C2.45557 28.5037 2.92432 28.9726 4.04053 28.9726L8.1814 28.9726C7.83521 29.8434 7.51172 30.6472 7.18799 31.4511C7.05396 31.8083 6.99829 32.1656 7.44458 32.3331C7.87988 32.5005 8.09204 32.2103 8.23706 31.853C8.57202 31.0268 8.9292 30.2118 9.23047 29.3745C9.35327 29.0507 9.52075 28.9726 9.84424 28.9726Q14.8083 28.9809 19.7722 28.9809Q24.7363 28.9809 29.7002 28.9726C30.0464 28.9726 30.1914 29.0842 30.303 29.3968C30.5933 30.1672 30.9058 30.9152 31.2183 31.6744C31.2739 31.7972 31.3186 31.9088 31.3745 32.0316C31.5195 32.3554 31.8208 32.5117 32.0889 32.3219C32.2673 32.1991 32.4236 31.8083 32.3567 31.6074ZM23.9856 27.2086L19.7444 27.2086C19.2761 27.2086 18.8064 27.2074 18.3364 27.2061C17.3953 27.2036 16.4521 27.2011 15.5142 27.2086C15.1348 27.2086 14.7664 27.1639 14.7554 26.6839C14.7441 26.1926 15.1125 26.0921 15.5254 26.0921L23.9968 26.0921C24.3987 26.0921 24.7781 26.1815 24.7781 26.6727C24.7781 27.1863 24.3762 27.2086 23.9856 27.2086Z" clip-rule="evenodd" fill="#E60000" fill-opacity="1.000000" fill-rule="evenodd" mask="url(#mask_184_894)"/>
			</g>
			<path id="Union" d="M31.7439 29.9827C31.6126 29.66 31.4768 29.3295 31.3411 28.9837L31.3418 28.9837C31.7052 28.9837 32.0635 28.9837 32.4175 28.9836C33.5308 28.9831 34.602 28.981 35.6604 28.9726C36.4194 28.9614 36.9998 28.5372 37.0332 27.8561C37.0718 27.2079 37.0625 26.5544 37.053 25.8955C37.0486 25.6011 37.0444 25.3057 37.0444 25.0092L2.45557 25.0092L2.45557 27.3761C2.45557 28.5037 2.92432 28.9726 4.04053 28.9726L8.1814 28.9726C8.04531 29.3149 7.91273 29.6469 7.78226 29.9726C7.58085 30.4754 7.38447 30.9632 7.18801 31.451L7.18799 31.4511C7.05396 31.8083 6.99829 32.1656 7.44458 32.3331C7.87988 32.5005 8.09204 32.2103 8.23706 31.853C8.57202 31.0268 8.9292 30.2118 9.23047 29.3745C9.35327 29.0507 9.52075 28.9726 9.84424 28.9726Q14.8083 28.9809 19.7722 28.9809Q24.7363 28.9809 29.7002 28.9726C30.0464 28.9726 30.1914 29.0842 30.303 29.3968C30.5933 30.1672 30.9058 30.9152 31.2183 31.6744C31.2739 31.7972 31.3186 31.9088 31.3745 32.0316C31.5195 32.3554 31.8208 32.5117 32.0889 32.3219C32.2673 32.1991 32.4236 31.8083 32.3567 31.6074C32.1805 31.0646 31.9687 30.5353 31.7439 29.9827ZM29.926 27.9837L31.3418 27.9837L35.6577 27.9726Q35.9742 27.9679 36.0249 27.8494Q36.0333 27.8298 36.0344 27.807Q36.0698 27.2099 36.0543 26.0092L25.6553 26.0092Q25.7781 26.3006 25.7781 26.6727Q25.7781 27.2239 25.5168 27.5873Q25.3491 27.8206 25.0737 27.9765L29.6995 27.9726Q29.8167 27.9726 29.926 27.9837ZM14.4205 27.9764Q14.2323 27.8717 14.0973 27.7196Q13.7706 27.3517 13.7556 26.7071Q13.7467 26.3147 13.8752 26.0092L3.45557 26.0092L3.45557 27.3761Q3.45557 27.6801 3.60757 27.8292Q3.75376 27.9726 4.04053 27.9726L9.65942 27.9726L9.65643 27.98Q9.7477 27.9726 9.84424 27.9726L14.4205 27.9764ZM2.4668 22.8258L2.4668 23.8258L3.4668 23.8258C14.7033 23.8258 25.8695 23.8255 37.0779 23.8146L37.0779 8.31841C37.0779 7.26895 36.6091 6.80005 35.5378 6.80005L4.00708 6.80005C2.92456 6.80005 2.4668 7.26895 2.4668 8.32957L2.4668 22.8258ZM3.4668 22.8256L24.4983 22.8229L36.0779 22.8153L36.0779 8.31841Q36.0779 8.06984 35.9537 7.94047Q35.8189 7.80005 35.5378 7.80005L4.00708 7.80005Q3.73151 7.80005 3.59649 7.93781Q3.4668 8.07014 3.4668 8.32957L3.4668 22.8256ZM16.3113 10.8145L16.3113 20.848L17.812 19.98L20.8569 18.2189L24.9937 15.8318L20.0154 12.9608L16.3113 10.8145ZM18.3113 18.536C17.9803 18.7275 17.6473 18.9201 17.3113 19.1144L17.3113 12.5497C17.6458 12.7446 17.9789 12.938 18.3113 13.1306C19.5368 13.8408 20.7526 14.5396 21.9924 15.2546C22.3238 15.4458 22.6569 15.6381 22.9924 15.8321C22.6563 16.0256 22.323 16.2177 21.9913 16.409C20.7583 17.1203 19.5491 17.82 18.3113 18.536ZM19.7444 27.2086L23.9856 27.2086C24.3762 27.2086 24.7781 27.1863 24.7781 26.6727C24.7781 26.1815 24.3987 26.0921 23.9968 26.0921L15.5254 26.0921C15.1125 26.0921 14.7441 26.1926 14.7554 26.6839C14.7664 27.1639 15.1348 27.2086 15.5142 27.2086C16.4521 27.2011 17.3953 27.2036 18.3364 27.2061C18.8064 27.2074 19.2761 27.2086 19.7444 27.2086Z" clip-rule="evenodd" fill="#E60000" fill-opacity="1.000000" fill-rule="evenodd"/>
		</g>
	</g>
</svg>
