<svg width="40.000000" height="40.000000" viewBox="0 0 40 40" fill="none" xmlns="http://www.w3.org/2000/svg" xmlns:xlink="http://www.w3.org/1999/xlink">
	<desc>
			Created with Pixso.
	</desc>
	<defs>
		<filter id="filter_184_909_dd" x="3.070312" y="7.000000" width="33.606934" height="25.197388" filterUnits="userSpaceOnUse" color-interpolation-filters="sRGB">
			<feFlood flood-opacity="0" result="BackgroundImageFix"/>
			<feGaussianBlur in="BackgroundImage" stdDeviation="4"/>
			<feComposite in2="SourceAlpha" operator="in" result="effect_backgroundBlur_1"/>
			<feBlend mode="normal" in="SourceGraphic" in2="effect_backgroundBlur_1" result="shape"/>
		</filter>
		<clipPath id="clip184_908">
			<rect id="Frame" width="33.599998" height="25.200001" transform="translate(3.066895 7.000000)" fill="white" fill-opacity="0"/>
		</clipPath>
		<clipPath id="clip184_907">
			<rect id="Icon" width="40.000000" height="40.000000" transform="translate(-0.333252 0.000000)" fill="white" fill-opacity="0"/>
		</clipPath>
	</defs>
	<g clip-path="url(#clip184_907)">
		<rect id="Frame" width="33.599998" height="25.200001" transform="translate(3.066895 7.000000)" fill="#FFFFFF" fill-opacity="0"/>
		<g clip-path="url(#clip184_908)">
			<g filter="url(#filter_184_909_dd)">
				<mask id="mask_184_909" fill="white">
					<path id="Union" d="M18.9783 12.5942C19.2698 12.593 19.561 12.5918 19.8508 12.5918C20.1511 12.5918 20.4524 12.593 20.7544 12.5942C21.3608 12.5965 21.9705 12.5988 22.5801 12.5918C23.5249 12.5709 24.0601 12.0358 24.0706 11.0811Q24.0786 10.4509 24.0786 9.82062Q24.0784 9.19193 24.0706 8.5632C24.0706 7.56653 23.5144 7 22.5171 7L17.2163 7C16.2295 7.0105 15.6838 7.56653 15.6733 8.5737L15.6733 11.0391C15.6733 12.0463 16.2085 12.5814 17.2268 12.5918C17.8079 12.5988 18.3938 12.5965 18.9783 12.5942ZM8.99731 15.4035L30.7781 15.4035C32.7095 15.4035 33.843 16.5261 33.864 18.446C33.8745 19.4321 34.0425 19.5895 35.0293 19.6C36.1313 19.6 36.6772 20.135 36.6772 21.2261L36.6772 26.3669C36.6772 27.4579 36.1313 27.993 35.0293 27.993C34.0425 27.993 33.8745 28.1609 33.864 29.147C33.8535 31.067 32.7095 32.2 30.7781 32.1895C29.2036 32.179 27.6292 32.179 26.0649 32.1056C25.1519 32.0636 24.3435 31.6649 23.6194 31.1299C22.895 30.6053 22.1917 30.0598 21.478 29.5352C20.3757 28.7064 19.4102 28.7064 18.3079 29.5247C17.6047 30.0493 16.9119 30.5739 16.2085 31.0984C15.2219 31.8223 14.1094 32.1895 12.8811 32.1895Q11.8577 32.1974 10.8342 32.1974L10.8142 32.1974Q9.80078 32.1973 8.78735 32.1895C7.08691 32.179 5.92188 31.025 5.89038 29.3254L5.89038 28.8533C5.85889 28.2448 5.61743 28.014 5.00854 27.993L4.48389 27.993C3.66504 27.951 3.08765 27.4055 3.08765 26.5977C3.06665 24.7302 3.06665 22.8523 3.07715 20.9848C3.08765 20.198 3.65454 19.6525 4.4314 19.6C4.51489 19.593 4.59375 19.5953 4.67432 19.5976C4.71509 19.5988 4.75635 19.6 4.79858 19.6C5.66992 19.6 5.86938 19.4007 5.87988 18.5194C5.90088 16.5051 7.00293 15.4035 8.99731 15.4035Z" clip-rule="evenodd" fill="" fill-opacity="1.000000" fill-rule="evenodd"/>
				</mask>
				<path id="Union" d="M18.9783 12.5942C19.2698 12.593 19.561 12.5918 19.8508 12.5918C20.1511 12.5918 20.4524 12.593 20.7544 12.5942C21.3608 12.5965 21.9705 12.5988 22.5801 12.5918C23.5249 12.5709 24.0601 12.0358 24.0706 11.0811Q24.0786 10.4509 24.0786 9.82062Q24.0784 9.19193 24.0706 8.5632C24.0706 7.56653 23.5144 7 22.5171 7L17.2163 7C16.2295 7.0105 15.6838 7.56653 15.6733 8.5737L15.6733 11.0391C15.6733 12.0463 16.2085 12.5814 17.2268 12.5918C17.8079 12.5988 18.3938 12.5965 18.9783 12.5942ZM8.99731 15.4035L30.7781 15.4035C32.7095 15.4035 33.843 16.5261 33.864 18.446C33.8745 19.4321 34.0425 19.5895 35.0293 19.6C36.1313 19.6 36.6772 20.135 36.6772 21.2261L36.6772 26.3669C36.6772 27.4579 36.1313 27.993 35.0293 27.993C34.0425 27.993 33.8745 28.1609 33.864 29.147C33.8535 31.067 32.7095 32.2 30.7781 32.1895C29.2036 32.179 27.6292 32.179 26.0649 32.1056C25.1519 32.0636 24.3435 31.6649 23.6194 31.1299C22.895 30.6053 22.1917 30.0598 21.478 29.5352C20.3757 28.7064 19.4102 28.7064 18.3079 29.5247C17.6047 30.0493 16.9119 30.5739 16.2085 31.0984C15.2219 31.8223 14.1094 32.1895 12.8811 32.1895Q11.8577 32.1974 10.8342 32.1974L10.8142 32.1974Q9.80078 32.1973 8.78735 32.1895C7.08691 32.179 5.92188 31.025 5.89038 29.3254L5.89038 28.8533C5.85889 28.2448 5.61743 28.014 5.00854 27.993L4.48389 27.993C3.66504 27.951 3.08765 27.4055 3.08765 26.5977C3.06665 24.7302 3.06665 22.8523 3.07715 20.9848C3.08765 20.198 3.65454 19.6525 4.4314 19.6C4.51489 19.593 4.59375 19.5953 4.67432 19.5976C4.71509 19.5988 4.75635 19.6 4.79858 19.6C5.66992 19.6 5.86938 19.4007 5.87988 18.5194C5.90088 16.5051 7.00293 15.4035 8.99731 15.4035Z" clip-rule="evenodd" fill="#E60000" fill-opacity="1.000000" fill-rule="evenodd" mask="url(#mask_184_909)"/>
			</g>
			<path id="Union" d="M19.8508 12.5918C19.561 12.5918 19.2698 12.593 18.9783 12.5942L18.9736 12.5942C18.3907 12.5965 17.8063 12.5988 17.2268 12.5918C16.2085 12.5814 15.6733 12.0463 15.6733 11.0391L15.6733 8.5737C15.6838 7.56653 16.2295 7.0105 17.2163 7L22.5171 7C23.5144 7 24.0706 7.56653 24.0706 8.5632Q24.0784 9.19193 24.0786 9.82062Q24.0786 10.0074 24.0779 10.1941Q24.0762 10.6376 24.0706 11.0811C24.0601 12.0358 23.5249 12.5709 22.5801 12.5918C21.9717 12.5988 21.3632 12.5965 20.758 12.5942L20.7544 12.5942C20.4524 12.593 20.1511 12.5918 19.8508 12.5918ZM19.8484 11.5919L18.9756 11.5942L18.9741 11.5942Q17.812 11.5988 17.2371 11.5919Q16.9466 11.5889 16.8058 11.4422Q16.6733 11.3043 16.6733 11.0391L16.6731 8.58411Q16.6764 8.27313 16.8332 8.1277Q16.968 8.00267 17.2163 8L22.5171 8Q22.7829 8 22.9211 8.13281Q23.0707 8.27651 23.0708 8.57571Q23.0784 9.19821 23.0786 9.82065Q23.0786 10.4446 23.0708 11.0701Q23.0678 11.3329 22.9348 11.4635Q22.8095 11.5865 22.5686 11.5919Q21.9666 11.5988 20.7571 11.5942L19.8484 11.5919ZM5.89038 28.8533L5.89038 29.3254C5.92188 31.025 7.08691 32.179 8.78735 32.1895Q9.80078 32.1973 10.8142 32.1974L10.8342 32.1974Q11.8577 32.1974 12.8811 32.1895C14.1094 32.1895 15.2219 31.8223 16.2085 31.0984C16.9119 30.5739 17.6047 30.0493 18.3079 29.5247C19.4102 28.7064 20.3757 28.7064 21.478 29.5352C22.1917 30.0598 22.895 30.6053 23.6194 31.1299C24.3435 31.6649 25.1519 32.0636 26.0649 32.1056C27.6292 32.179 29.2036 32.179 30.7781 32.1895C32.7095 32.2 33.8535 31.067 33.864 29.147C33.8745 28.1609 34.0425 27.993 35.0293 27.993C36.1313 27.993 36.6772 27.4579 36.6772 26.3669L36.6772 21.2261C36.6772 20.135 36.1313 19.6 35.0293 19.6C34.0425 19.5895 33.8745 19.4321 33.864 18.446C33.843 16.5261 32.7095 15.4035 30.7781 15.4035L8.99731 15.4035C7.00293 15.4035 5.90088 16.5051 5.87988 18.5194C5.86938 19.4007 5.66992 19.6 4.79858 19.6C4.75635 19.6 4.71509 19.5988 4.67432 19.5976L4.67384 19.5976C4.59344 19.5953 4.51473 19.593 4.4314 19.6C3.65454 19.6525 3.08765 20.198 3.07715 20.9848C3.06665 22.8523 3.06665 24.7302 3.08765 26.5977C3.08765 27.4055 3.66504 27.951 4.48389 27.993L5.00854 27.993C5.61743 28.014 5.85889 28.2448 5.89038 28.8533ZM4.51358 26.993L5.02588 26.993L5.04297 26.9936Q5.92452 27.024 6.38619 27.4797Q6.84394 27.9316 6.88892 28.8016L6.89038 28.8274L6.89014 29.3069Q6.90752 30.245 7.38534 30.7156Q7.86057 31.1838 8.79126 31.1895L10.8142 31.1974L10.8303 31.1974L12.8811 31.1895Q13.6537 31.1895 14.3486 30.9571Q15.0144 30.7344 15.6089 30.2983L16.6584 29.5114L17.7119 28.7218Q18.8114 27.9055 19.9063 27.9115Q20.9904 27.9174 22.0701 28.7294Q22.3887 28.9635 23.0178 29.437Q23.8076 30.0315 24.2134 30.3256Q25.2151 31.0655 26.1118 31.1067Q27.46 31.17 30.1938 31.1859Q30.5876 31.1882 30.7834 31.1895Q31.8206 31.1952 32.3408 30.6794Q32.8585 30.1661 32.8643 29.1364Q32.8756 28.0641 33.4175 27.5283Q33.9587 26.993 35.0293 26.993Q35.3643 26.993 35.5261 26.8256Q35.6772 26.6692 35.6772 26.3669L35.6772 21.2261Q35.6772 20.9289 35.5288 20.7728Q35.3646 20.6 35.0186 20.5999Q33.9468 20.5885 33.4082 20.0469Q32.8754 19.5112 32.8643 18.4569Q32.8531 17.4353 32.3367 16.922Q31.8151 16.4035 30.7781 16.4035L8.99731 16.4035Q7.96586 16.4035 7.43674 16.9191Q6.89092 17.4509 6.87964 18.5313Q6.86736 19.5718 6.34092 20.089Q5.82075 20.6 4.79858 20.6Q4.74194 20.6 4.64551 20.5972Q4.54199 20.5942 4.49878 20.5977Q4.25782 20.614 4.15455 20.7416Q4.07921 20.8348 4.07715 20.9872L4.07056 23.7906L4.08765 26.5977Q4.08765 26.7493 4.16128 26.8432Q4.26474 26.9751 4.51358 26.993Z" clip-rule="evenodd" fill="#E60000" fill-opacity="1.000000" fill-rule="evenodd"/>
		</g>
	</g>
</svg>
